<svg width="737" height="191" viewBox="0 0 737 191" fill="none" xmlns="http://www.w3.org/2000/svg">
<path d="M242.2 132C238.6 132 235.133 131.567 231.8 130.7C228.467 129.767 225.867 128.667 224 127.4L223.9 126.8C224.967 121.667 225.767 116.333 226.3 110.8L227 110.9C227.267 116.833 229.2 121.333 232.8 124.4C236.4 127.4 240.967 128.9 246.5 128.9C250.1 128.9 252.633 128.267 254.1 127C255.567 125.667 256.3 123.8 256.3 121.4C256.3 118.867 255.167 116.933 252.9 115.6C250.633 114.267 247.167 112.9 242.5 111.5C238.633 110.233 235.567 109.1 233.3 108.1C231.033 107.1 229.067 105.7 227.4 103.9C225.8 102.033 225 99.7 225 96.9C225 91.8333 226.933 87.8333 230.8 84.9C234.733 81.9 239.867 80.4 246.2 80.4C252 80.4 257.433 81.4333 262.5 83.5L262.6 84C260.867 88.8667 259.633 94.1667 258.9 99.9H258.3C256.633 88.8333 251.2 83.3 242 83.3C238.933 83.3 236.5 84 234.7 85.4C232.967 86.8 232.1 88.6 232.1 90.8C232.1 92.8 232.733 94.4667 234 95.8C235.267 97.0667 236.833 98.1 238.7 98.9C240.633 99.7 243.2 100.567 246.4 101.5C250.133 102.7 253.133 103.8 255.4 104.8C257.667 105.8 259.567 107.2 261.1 109C262.7 110.8 263.5 113.133 263.5 116C263.5 118.8 262.767 121.433 261.3 123.9C259.9 126.3 257.6 128.267 254.4 129.8C251.2 131.267 247.133 132 242.2 132ZM266.652 148.4L268.352 147.8C269.619 147.2 270.486 146.2 270.952 144.8C271.419 143.467 271.719 140.867 271.852 137C271.986 133.2 272.052 126.367 272.052 116.5C272.052 107.567 271.986 101.367 271.852 97.9C271.719 94.4333 271.386 92.0667 270.852 90.8C270.319 89.4667 269.386 88.5333 268.052 88L266.352 87V86.6C269.819 86.2667 272.852 85.4 275.452 84C278.119 82.6 280.252 80.7667 281.852 78.5L282.152 78.6L281.952 82.5C281.686 85.4333 281.519 88.2 281.452 90.8H281.852C285.052 87.4 288.052 84.8333 290.852 83.1C293.652 81.3 296.752 80.4 300.152 80.4C303.352 80.4 306.319 81.3333 309.052 83.2C311.852 85 314.086 87.6667 315.752 91.2C317.419 94.6667 318.252 98.8333 318.252 103.7C318.252 109.633 317.119 114.733 314.852 119C312.652 123.2 309.752 126.4 306.152 128.6C302.619 130.733 298.852 131.8 294.852 131.8C288.852 131.8 284.552 129.667 281.952 125.4C281.952 131.867 282.052 136.5 282.252 139.3C282.519 142.1 282.986 144.033 283.652 145.1C284.386 146.167 285.586 146.933 287.252 147.4L290.252 148.4V148.8H266.652V148.4ZM295.352 129.2C299.352 129.2 302.386 127.433 304.452 123.9C306.586 120.367 307.652 115.4 307.652 109C307.652 101.667 306.352 96.1667 303.752 92.5C301.152 88.7667 297.819 86.9 293.752 86.9C291.819 86.9 289.952 87.2667 288.152 88C286.352 88.6667 284.386 89.9333 282.252 91.8C282.052 97.0667 281.952 102.267 281.952 107.4C281.952 121.933 286.419 129.2 295.352 129.2ZM336.045 132C331.511 132 327.911 130.733 325.245 128.2C322.645 125.6 321.345 122.433 321.345 118.7C321.345 115.833 322.445 113.467 324.645 111.6C326.911 109.667 330.111 108.033 334.245 106.7C338.378 105.3 344.111 103.767 351.445 102.1C351.445 95.6333 350.811 90.8667 349.545 87.8C348.345 84.6667 346.111 83.1 342.845 83.1C340.378 83.1 338.311 83.8333 336.645 85.3C335.045 86.7 334.245 88.7333 334.245 91.4C334.245 92.2 334.345 93.1 334.545 94.1C334.811 95.7 334.311 96.9667 333.045 97.9C331.845 98.7667 330.245 99.2 328.245 99.2C326.445 99.2 325.178 98.9 324.445 98.3C323.778 97.6333 323.445 96.7667 323.445 95.7C323.445 93.3 324.511 90.9333 326.645 88.6C328.845 86.2 331.678 84.2333 335.145 82.7C338.678 81.1667 342.345 80.4 346.145 80.4C351.811 80.4 355.745 81.6667 357.945 84.2C360.211 86.7333 361.345 90.6 361.345 95.8L361.245 107C361.178 108.933 361.145 111.7 361.145 115.3C361.145 119.833 361.345 122.9 361.745 124.5C362.211 126.1 363.111 126.9 364.445 126.9C365.311 126.9 366.078 126.2 366.745 124.8C367.478 123.333 368.011 120.8 368.345 117.2H369.145C369.078 122.733 368.311 126.6 366.845 128.8C365.445 130.933 363.278 132 360.345 132C355.145 132 352.278 128.7 351.745 122.1H351.345C348.545 125.3 345.911 127.767 343.445 129.5C341.045 131.167 338.578 132 336.045 132ZM341.245 125.7C342.978 125.7 344.578 125.3 346.045 124.5C347.578 123.7 349.278 122.5 351.145 120.9C351.345 116.3 351.445 110.8 351.445 104.4C345.911 105.333 341.778 106.233 339.045 107.1C336.378 107.9 334.445 108.967 333.245 110.3C332.111 111.633 331.545 113.5 331.545 115.9C331.545 117.3 331.911 118.767 332.645 120.3C333.378 121.833 334.478 123.133 335.945 124.2C337.411 125.2 339.178 125.7 341.245 125.7ZM370.973 130.6L372.573 130C373.773 129.4 374.606 128.533 375.073 127.4C375.606 126.267 375.939 124.333 376.073 121.6C376.273 118.867 376.373 114.233 376.373 107.7C376.373 101.967 376.306 97.9 376.173 95.5C376.039 93.1 375.706 91.4 375.173 90.4C374.639 89.3333 373.706 88.5333 372.373 88L370.473 87V86.6C374.073 86.2667 377.173 85.4 379.773 84C382.439 82.6 384.573 80.7667 386.173 78.5L386.473 78.6L386.273 82.1C386.006 85.4333 385.839 88.6 385.773 91.6H386.173C387.906 88.4 389.939 85.7333 392.273 83.6C394.673 81.4667 397.073 80.4 399.473 80.4C401.606 80.4 403.306 81 404.573 82.2C405.906 83.3333 406.573 84.7 406.573 86.3C406.573 88.0333 405.839 89.6333 404.373 91.1C402.973 92.5 401.573 93.2 400.173 93.2C399.439 93.2 398.773 92.9667 398.173 92.5C397.639 91.9667 397.039 91.2333 396.373 90.3C395.639 89.3667 395.039 88.7 394.573 88.3C394.106 87.8333 393.539 87.6 392.873 87.6C392.006 87.6 391.006 88.0667 389.873 89C388.806 89.9333 387.706 91.2333 386.573 92.9C386.373 97.3 386.273 102.067 386.273 107.2C386.273 113.667 386.373 118.267 386.573 121C386.839 123.733 387.373 125.767 388.173 127.1C388.973 128.367 390.373 129.333 392.373 130L395.073 130.6V131H370.973V130.6ZM406.705 130.6L408.705 130C409.772 129.4 410.505 128.433 410.905 127.1C411.372 125.7 411.672 123.1 411.805 119.3C411.939 115.433 412.005 108.767 412.005 99.3C412.005 88.7 411.939 81.6333 411.805 78.1C411.739 74.5 411.439 72.1 410.905 70.9C410.439 69.6333 409.505 68.7 408.105 68.1L406.305 67.2V66.8C409.972 66.4667 413.239 65.6333 416.105 64.3C418.972 62.9 421.205 61.1333 422.805 59L423.205 59.1C422.739 62.1667 422.405 66.4 422.205 71.8C422.072 77.1333 422.005 85.1333 422.005 95.8V109.7C427.805 104.633 432.139 100.6 435.005 97.6C437.939 94.6 439.805 92.3667 440.605 90.9C441.472 89.3667 441.905 88 441.905 86.8C441.905 84.5333 440.605 82.9667 438.005 82.1L437.105 81.8V81.4H458.405V81.8L457.205 82.2C455.805 82.6667 453.772 83.9667 451.105 86.1C448.439 88.1667 443.939 92.1667 437.605 98.1C442.605 107.7 446.272 114.6 448.605 118.8C451.005 122.933 452.872 125.733 454.205 127.2C455.539 128.667 457.005 129.6 458.605 130L460.705 130.6V131H440.205V130.7L440.805 130.1C441.272 129.633 441.505 129.1 441.505 128.5C441.505 127.233 440.705 124.9 439.105 121.5C437.505 118.1 434.572 112.6 430.305 105L427.805 107.3C425.405 109.433 423.505 111.2 422.105 112.6C422.172 117.4 422.339 120.967 422.605 123.3C422.939 125.567 423.405 127.167 424.005 128.1C424.605 128.967 425.539 129.633 426.805 130.1L429.005 130.6V131H406.705V130.6ZM481.354 132C476.954 132 473.021 131.067 469.554 129.2C466.087 127.333 463.354 124.567 461.354 120.9C459.421 117.233 458.454 112.733 458.454 107.4C458.454 101.867 459.554 97.0667 461.754 93C464.021 88.9333 467.154 85.8333 471.154 83.7C475.221 81.5 479.854 80.4 485.054 80.4C489.187 80.4 494.321 81.2333 500.454 82.9L500.654 83.3C498.921 88.7 497.687 95 496.954 102.2H496.154C495.354 95.7333 493.754 90.9667 491.354 87.9C488.954 84.7667 485.487 83.2 480.954 83.2C477.021 83.2 473.921 84.9 471.654 88.3C469.454 91.6333 468.354 96.3333 468.354 102.4C468.354 109.467 469.854 114.9 472.854 118.7C475.854 122.5 480.054 124.4 485.454 124.4C492.587 124.4 497.687 120.167 500.754 111.7L501.454 111.8C500.521 118.4 498.354 123.433 494.954 126.9C491.554 130.3 487.021 132 481.354 132ZM504.762 130.6L506.362 130C507.628 129.4 508.495 128.533 508.962 127.4C509.495 126.2 509.828 124.233 509.962 121.5C510.095 118.7 510.162 113.9 510.162 107.1C510.162 101.367 510.095 97.3333 509.962 95C509.828 92.6 509.495 90.9 508.962 89.9C508.428 88.8333 507.495 88.0667 506.162 87.6L504.262 86.5V86.1C507.662 85.8333 510.762 85.0667 513.562 83.8C516.362 82.5333 518.695 80.7667 520.562 78.5L520.962 78.6C520.362 84.3333 520.062 93.2333 520.062 105.3C520.062 112.367 520.128 117.4 520.262 120.4C520.462 123.4 520.828 125.633 521.362 127.1C521.962 128.5 522.928 129.5 524.262 130.1L525.962 130.6V131H504.762V130.6ZM514.162 75C510.028 75 507.962 73.1 507.962 69.3C507.962 67.3 508.662 65.7667 510.062 64.7C511.462 63.6333 513.428 63.1 515.962 63.1C518.028 63.1 519.562 63.5667 520.562 64.5C521.562 65.3667 522.062 66.7667 522.062 68.7C522.062 70.7 521.362 72.2667 519.962 73.4C518.562 74.4667 516.628 75 514.162 75ZM529.469 130.6L531.069 130C532.269 129.4 533.102 128.533 533.569 127.4C534.102 126.267 534.435 124.333 534.569 121.6C534.769 118.867 534.869 114.233 534.869 107.7C534.869 101.967 534.802 97.9 534.669 95.5C534.535 93.1 534.202 91.4 533.669 90.4C533.135 89.3333 532.202 88.5333 530.869 88L528.969 87V86.6C532.569 86.2667 535.669 85.4 538.269 84C540.935 82.6 543.069 80.7667 544.669 78.5L544.969 78.6L544.769 82.1C544.502 85.4333 544.335 88.6 544.269 91.6H544.669C546.402 88.4 548.435 85.7333 550.769 83.6C553.169 81.4667 555.569 80.4 557.969 80.4C560.102 80.4 561.802 81 563.069 82.2C564.402 83.3333 565.069 84.7 565.069 86.3C565.069 88.0333 564.335 89.6333 562.869 91.1C561.469 92.5 560.069 93.2 558.669 93.2C557.935 93.2 557.269 92.9667 556.669 92.5C556.135 91.9667 555.535 91.2333 554.869 90.3C554.135 89.3667 553.535 88.7 553.069 88.3C552.602 87.8333 552.035 87.6 551.369 87.6C550.502 87.6 549.502 88.0667 548.369 89C547.302 89.9333 546.202 91.2333 545.069 92.9C544.869 97.3 544.769 102.067 544.769 107.2C544.769 113.667 544.869 118.267 545.069 121C545.335 123.733 545.869 125.767 546.669 127.1C547.469 128.367 548.869 129.333 550.869 130L553.569 130.6V131H529.469V130.6ZM587.702 132C583.302 132 579.368 131.067 575.902 129.2C572.435 127.333 569.702 124.567 567.702 120.9C565.768 117.233 564.802 112.733 564.802 107.4C564.802 101.867 565.902 97.0667 568.102 93C570.368 88.9333 573.502 85.8333 577.502 83.7C581.568 81.5 586.202 80.4 591.402 80.4C595.535 80.4 600.668 81.2333 606.802 82.9L607.002 83.3C605.268 88.7 604.035 95 603.302 102.2H602.502C601.702 95.7333 600.102 90.9667 597.702 87.9C595.302 84.7667 591.835 83.2 587.302 83.2C583.368 83.2 580.268 84.9 578.002 88.3C575.802 91.6333 574.702 96.3333 574.702 102.4C574.702 109.467 576.202 114.9 579.202 118.7C582.202 122.5 586.402 124.4 591.802 124.4C598.935 124.4 604.035 120.167 607.102 111.7L607.802 111.8C606.868 118.4 604.702 123.433 601.302 126.9C597.902 130.3 593.368 132 587.702 132ZM610.221 130.6L612.221 130C613.288 129.4 614.021 128.433 614.421 127.1C614.888 125.767 615.188 123.2 615.321 119.4C615.454 115.533 615.521 108.833 615.521 99.3C615.521 88.7 615.454 81.6333 615.321 78.1C615.254 74.5 614.954 72.1 614.421 70.9C613.954 69.6333 613.021 68.7 611.621 68.1L609.821 67.2V66.8C613.488 66.4667 616.754 65.6333 619.621 64.3C622.488 62.9 624.688 61.1333 626.221 59L626.621 59.1C626.154 62.1 625.854 66.1333 625.721 71.2C625.588 76.2 625.521 84.4 625.521 95.8C625.521 106.867 625.588 114.433 625.721 118.5C625.854 122.567 626.188 125.367 626.721 126.9C627.254 128.367 628.221 129.433 629.621 130.1L631.421 130.6V131H610.221V130.6ZM656.645 132C652.311 132 648.411 131.1 644.945 129.3C641.545 127.433 638.845 124.7 636.845 121.1C634.845 117.433 633.845 113.033 633.845 107.9C633.845 102.233 634.945 97.3333 637.145 93.2C639.345 89.0667 642.345 85.9 646.145 83.7C650.011 81.5 654.345 80.4 659.145 80.4C664.811 80.4 669.345 82.0333 672.745 85.3C676.145 88.5 677.845 92.7 677.845 97.9C677.845 99.1667 677.745 100.467 677.545 101.8L643.745 103.1C643.878 109.967 645.445 115.233 648.445 118.9C651.511 122.567 655.645 124.4 660.845 124.4C664.311 124.4 667.445 123.3 670.245 121.1C673.111 118.833 675.145 115.7 676.345 111.7L677.045 111.8C676.111 118.533 673.878 123.6 670.345 127C666.811 130.333 662.245 132 656.645 132ZM664.745 100.3C665.945 100.233 666.745 100 667.145 99.6C667.611 99.1333 667.845 98.3 667.845 97.1C667.845 93.0333 666.745 89.7 664.545 87.1C662.345 84.5 659.511 83.2 656.045 83.2C652.311 83.2 649.345 84.8 647.145 88C644.945 91.1333 643.811 95.5333 643.745 101.2L664.745 100.3Z" fill="#363636"/>
<path fill-rule="evenodd" clip-rule="evenodd" d="M114.563 23.1597C109.323 25.3705 99.7423 40.6008 96.1394 52.5557L94.338 58.6151L92.5357 54.1934C83.6923 32.6581 73.3751 23.651 65.1049 30.3654C59.7825 34.7052 62.3217 55.0941 70.3462 72.699C71.9839 76.22 73.2121 79.1678 73.2121 79.2496C73.2121 79.3315 69.773 78.5127 65.6789 77.4482C42.0146 71.3889 15.9755 79.1678 24.7373 89.5669C28.3402 93.9067 46.9268 101.358 63.4672 105.043C67.3157 105.862 69.8541 106.599 69.199 106.68C59.8644 107.172 28.2575 131.408 28.2575 137.959C28.2575 145.82 44.8797 143.774 64.7773 133.538L74.686 128.38L73.1302 132.801C68.7085 145.575 67.807 160.478 71.328 163.18C79.3525 169.485 89.0966 163.18 94.9922 147.868C97.8581 140.498 97.3676 140.334 102.526 150.324C112.352 169.567 121.277 175.79 129.465 168.912C131.84 166.865 129.793 147.95 126.108 138.451C125.78 137.55 127.419 138.287 130.94 140.662C151.165 154.336 175.893 150.323 165.821 135.093C162.464 130.016 154.113 122.566 144.86 116.343L137.327 111.266L143.713 110.611C166.476 108.318 184 96.6089 184 83.6713C184 75.4011 175.157 73.1076 157.47 76.9561L155.176 77.4482L157.797 73.0265C171.799 49.2804 154.931 41.0102 132.414 60.6622C129.875 62.873 128.237 63.9367 128.564 63.036C137.49 38.8804 129.875 16.609 114.563 23.1597Z" fill="#363636"/>
</svg>
