<svg width="737" height="191" viewBox="0 0 737 191" fill="none" xmlns="http://www.w3.org/2000/svg">
<path d="M239.1 86.5C239.1 92.9 263.4 101.5 263.4 112.4C263.4 118.7 256.9 124 244.7 124C232.5 124 223.3 120.3 223.3 113.9C223.3 110.6 226.1 109.1 229 109.1C232.3 109.1 235.7 111 235.7 114.7C235.7 116.8 237.4 120.2 241.6 120.2C243.7 120.2 246.2 118.5 246.2 116.5C246.2 110.4 222 101.5 222 90.5C222 84.2 228.4 79 240.7 79C252.8 79 262 82.7 262 89.1C262 92.3 259.2 93.9 256.3 93.9C253 93.9 249.6 92 249.6 88.3C249.6 85.5 247.4 83.4 244.1 83.4C241.4 83.4 239.1 84.5 239.1 86.5ZM296.971 79C309.471 79 315.671 90.1 315.671 101.3C315.671 112.6 309.371 124 296.971 124C290.971 124 287.671 120.8 287.271 120.4V132.1C287.271 136.7 288.971 139 291.871 139C292.971 139 293.471 139.8 293.471 140.6C293.471 141.4 292.871 142.3 291.871 142.3H266.571C265.571 142.3 264.971 141.4 264.971 140.6C264.971 139.8 265.471 139 266.571 139C269.471 139 271.171 136.7 271.171 132.1C271.171 125.4 271.271 106.1 271.271 98.3C271.271 90.4 268.771 89.2 266.571 89.2C265.471 89.2 264.871 88.4 264.871 87.6C264.871 86.7 265.471 85.9 266.871 85.9C277.671 85.9 281.071 79 285.071 79C286.971 79 287.271 80.7 287.271 82.5C287.671 82.1 291.071 79 296.971 79ZM290.671 115.2C296.071 115.2 298.771 108.3 298.771 101.5C298.771 94.6 296.071 87.8 290.671 87.8C289.271 87.8 287.971 88.7 287.271 89.8V113.2C287.971 114.3 289.271 115.2 290.671 115.2ZM359.915 117.9C360.415 117.4 360.915 117.2 361.415 117.2C362.315 117.2 363.115 117.9 363.115 118.9C363.115 119.4 362.815 120 362.315 120.5C360.215 122.6 357.015 123.9 353.115 123.9C348.615 123.9 345.215 122.7 343.115 120.1C341.115 121.8 337.215 123.9 331.815 123.9C322.715 123.9 317.215 119.3 317.215 113.5C317.215 99.2 340.715 102.2 340.715 93.8V89.1C340.715 85 339.015 83.3 336.915 83.3C334.815 83.3 333.115 85.3 333.115 89V91.3C333.115 95.1 329.615 96.9 326.215 96.9C322.715 96.9 319.315 95.1 319.315 91.4C319.315 87 324.715 78.9 336.215 78.9C350.215 78.9 356.815 87.4 356.815 99.5V113.7C356.815 117.3 358.115 118.2 359.015 118.2C359.415 118.2 359.715 118.1 359.915 117.9ZM336.715 117.8C339.015 117.8 340.415 116.8 341.215 116C340.815 114.7 340.715 113.2 340.715 111.5V101.8C340.715 104.1 333.115 108.3 333.115 113.7C333.115 115.8 334.315 117.8 336.715 117.8ZM400.604 78.4C406.504 78.4 409.704 83 409.704 87.5C409.704 91.7 406.804 95.9 401.004 95.9C396.404 95.9 396.104 93.8 393.004 93.8C390.204 93.8 387.504 98.8 385.904 102.3V113.8C385.904 118.5 387.604 120.8 390.504 120.8C391.604 120.8 392.104 121.6 392.104 122.3C392.104 123.2 391.504 124 390.504 124H365.204C364.204 124 363.604 123.2 363.604 122.3C363.604 121.6 364.104 120.8 365.204 120.8C368.104 120.8 369.804 118.5 369.804 113.8C369.804 107.1 369.904 106.1 369.904 98.3C369.904 90.4 367.404 89.2 365.204 89.2C364.104 89.2 363.504 88.4 363.504 87.6C363.504 86.7 364.104 85.9 365.504 85.9C376.304 85.9 379.704 79 383.704 79C385.704 79 385.904 80.8 385.904 82.7V93.5C388.104 87.8 393.004 78.4 400.604 78.4ZM464.04 120.8C465.04 120.8 465.54 121.6 465.54 122.4C465.54 123.2 465.04 124 464.04 124H438.94C437.84 124 437.34 123.2 437.34 122.4C437.34 121.6 437.84 120.8 438.94 120.8C439.74 120.8 440.14 120.5 440.14 119.9C440.14 119.2 439.44 118 438.34 116.7L430.34 106.9C430.34 107 430.34 107 430.24 107V113.8C430.24 118.5 431.94 120.8 434.84 120.8C435.94 120.8 436.44 121.6 436.44 122.4C436.44 123.2 435.94 124 434.84 124H409.54C408.54 124 408.04 123.2 408.04 122.4C408.04 121.6 408.54 120.8 409.54 120.8C412.44 120.8 414.14 118.5 414.14 113.8C414.14 107.1 414.34 87.9 414.34 80C414.34 72.2 411.74 70.9 409.54 70.9C408.44 70.9 407.84 70.1 407.84 69.4C407.84 68.5 408.54 67.7 409.84 67.7C420.74 67.7 424.14 60.7 428.04 60.7C430.04 60.7 430.24 62.5 430.24 64.4V100.2C432.54 97.9 436.04 94.3 439.94 90.4C441.84 88.4 442.64 86.8 442.64 85.5C442.64 83.4 440.74 82.2 439.04 82.2C437.94 82.2 437.44 81.4 437.44 80.7C437.44 79.8 438.04 79 439.04 79H459.84C460.94 79 461.44 79.8 461.44 80.6C461.44 81.4 460.94 82.2 459.84 82.2C456.94 82.2 453.84 83.4 449.94 87.3C447.54 89.8 444.64 92.7 441.74 95.6L459.84 118C461.04 119.3 462.24 120.8 464.04 120.8ZM499.939 111.6C500.239 111.2 500.739 111 501.139 111C502.139 111 503.039 111.9 503.039 112.8C503.039 113.1 503.039 113.3 502.839 113.6C500.839 116.9 496.439 124 484.139 124C469.339 124 462.039 113.1 462.039 102.1C462.039 90.6 469.839 79 485.639 79C499.439 79 502.339 88.5 502.339 91.3C502.339 94.2 499.639 95.7 497.039 95.7C494.439 95.7 491.939 94.3 491.939 91.4V90.8C491.939 88.9 491.739 83.4 487.939 83.4C482.139 83.4 478.639 91.2 478.639 99.2C478.639 107.8 482.639 116.6 491.839 116.6C496.639 116.6 498.639 113.1 499.939 111.6ZM531.52 120.8C532.62 120.8 533.12 121.6 533.12 122.3C533.12 123.2 532.52 124 531.52 124H506.22C505.22 124 504.62 123.2 504.62 122.3C504.62 121.6 505.12 120.8 506.22 120.8C509.12 120.8 510.82 118.5 510.82 113.8C510.82 107.1 510.92 106.1 510.92 98.3C510.92 90.4 508.42 89.2 506.22 89.2C505.12 89.2 504.52 88.4 504.52 87.6C504.52 86.7 505.12 85.9 506.52 85.9C517.32 85.9 520.72 79 524.72 79C526.72 79 526.92 80.8 526.92 82.7V113.8C526.92 118.5 528.62 120.8 531.52 120.8ZM518.92 76.7C514.52 76.7 510.92 73.1 510.92 68.7C510.92 64.3 514.52 60.7 518.92 60.7C523.32 60.7 526.92 64.3 526.92 68.7C526.92 73.1 523.32 76.7 518.92 76.7ZM571.6 78.4C577.5 78.4 580.7 83 580.7 87.5C580.7 91.7 577.8 95.9 572 95.9C567.4 95.9 567.1 93.8 564 93.8C561.2 93.8 558.5 98.8 556.9 102.3V113.8C556.9 118.5 558.6 120.8 561.5 120.8C562.6 120.8 563.1 121.6 563.1 122.3C563.1 123.2 562.5 124 561.5 124H536.2C535.2 124 534.6 123.2 534.6 122.3C534.6 121.6 535.1 120.8 536.2 120.8C539.1 120.8 540.8 118.5 540.8 113.8C540.8 107.1 540.9 106.1 540.9 98.3C540.9 90.4 538.4 89.2 536.2 89.2C535.1 89.2 534.5 88.4 534.5 87.6C534.5 86.7 535.1 85.9 536.5 85.9C547.3 85.9 550.7 79 554.7 79C556.7 79 556.9 80.8 556.9 82.7V93.5C559.1 87.8 564 78.4 571.6 78.4ZM620.056 111.6C620.356 111.2 620.856 111 621.256 111C622.256 111 623.156 111.9 623.156 112.8C623.156 113.1 623.156 113.3 622.956 113.6C620.956 116.9 616.556 124 604.256 124C589.456 124 582.156 113.1 582.156 102.1C582.156 90.6 589.956 79 605.756 79C619.556 79 622.456 88.5 622.456 91.3C622.456 94.2 619.756 95.7 617.156 95.7C614.556 95.7 612.056 94.3 612.056 91.4V90.8C612.056 88.9 611.856 83.4 608.056 83.4C602.256 83.4 598.756 91.2 598.756 99.2C598.756 107.8 602.756 116.6 611.956 116.6C616.756 116.6 618.756 113.1 620.056 111.6ZM649.977 120.8C651.077 120.8 651.577 121.6 651.577 122.4C651.577 123.2 651.077 124 649.977 124H624.677C623.677 124 623.177 123.2 623.177 122.4C623.177 121.6 623.677 120.8 624.677 120.8C627.577 120.8 629.277 118.5 629.277 113.8C629.277 107.1 629.377 87.9 629.377 80C629.377 72.2 626.877 70.9 624.677 70.9C623.577 70.9 622.977 70.1 622.977 69.4C622.977 68.5 623.677 67.7 624.977 67.7C635.877 67.7 639.177 60.7 643.177 60.7C645.177 60.7 645.377 62.5 645.377 64.4V113.8C645.377 118.5 647.077 120.8 649.977 120.8ZM693.795 99.9V100.1C693.795 100.2 693.795 100.3 693.695 100.4C693.595 101.1 692.895 101.6 692.095 101.6H667.495C668.495 109.3 672.895 116.6 681.095 116.6C685.895 116.6 689.295 113.2 690.695 111.6C690.995 111.2 691.495 111.1 691.895 111.1C692.895 111.1 693.795 111.9 693.795 112.8C693.795 113.1 693.795 113.3 693.595 113.6C691.495 116.9 685.695 124 675.095 124C658.995 124 651.395 113 651.395 101.9C651.395 90.5 659.295 79 674.195 79C685.995 79 693.695 87.8 693.795 99.9ZM667.195 98.2H679.395C679.395 98.2 679.695 95.9 679.695 93.1C679.695 88.8 678.995 83.4 675.695 83.4C670.295 83.4 667.195 90.4 667.195 97.8V98.2Z" fill="#363636"/>
<path fill-rule="evenodd" clip-rule="evenodd" d="M114.563 23.1597C109.323 25.3705 99.7423 40.6008 96.1394 52.5557L94.338 58.6151L92.5357 54.1934C83.6923 32.6581 73.3751 23.651 65.1049 30.3654C59.7825 34.7052 62.3217 55.0941 70.3462 72.699C71.9839 76.22 73.2121 79.1678 73.2121 79.2496C73.2121 79.3315 69.773 78.5127 65.6789 77.4482C42.0146 71.3889 15.9755 79.1678 24.7373 89.5669C28.3402 93.9067 46.9268 101.358 63.4672 105.043C67.3157 105.862 69.8541 106.599 69.199 106.68C59.8644 107.172 28.2575 131.408 28.2575 137.959C28.2575 145.82 44.8797 143.774 64.7773 133.538L74.686 128.38L73.1302 132.801C68.7085 145.575 67.807 160.478 71.328 163.18C79.3525 169.485 89.0966 163.18 94.9922 147.868C97.8581 140.498 97.3676 140.334 102.526 150.324C112.352 169.567 121.277 175.79 129.465 168.912C131.84 166.865 129.793 147.95 126.108 138.451C125.78 137.55 127.419 138.287 130.94 140.662C151.165 154.336 175.893 150.323 165.821 135.093C162.464 130.016 154.113 122.566 144.86 116.343L137.327 111.266L143.713 110.611C166.476 108.318 184 96.6089 184 83.6713C184 75.4011 175.157 73.1076 157.47 76.9561L155.176 77.4482L157.797 73.0265C171.799 49.2804 154.931 41.0102 132.414 60.6622C129.875 62.873 128.237 63.9367 128.564 63.036C137.49 38.8804 129.875 16.609 114.563 23.1597Z" fill="#363636"/>
</svg>
