<svg width="209" height="191" viewBox="0 0 209 191" fill="none" xmlns="http://www.w3.org/2000/svg">
<path fill-rule="evenodd" clip-rule="evenodd" d="M114.563 23.1597C109.323 25.3705 99.7423 40.6008 96.1394 52.5557L94.338 58.6151L92.5357 54.1934C83.6923 32.6581 73.3751 23.651 65.1049 30.3654C59.7825 34.7052 62.3217 55.0941 70.3462 72.699C71.9839 76.22 73.2121 79.1678 73.2121 79.2496C73.2121 79.3315 69.773 78.5127 65.6789 77.4482C42.0146 71.3889 15.9755 79.1678 24.7373 89.5669C28.3402 93.9067 46.9268 101.358 63.4672 105.043C67.3157 105.862 69.8541 106.599 69.199 106.68C59.8644 107.172 28.2575 131.408 28.2575 137.959C28.2575 145.82 44.8797 143.774 64.7773 133.538L74.686 128.38L73.1302 132.801C68.7085 145.575 67.807 160.478 71.328 163.18C79.3525 169.485 89.0966 163.18 94.9922 147.868C97.8581 140.498 97.3676 140.334 102.526 150.324C112.352 169.567 121.277 175.79 129.465 168.912C131.84 166.865 129.793 147.95 126.108 138.451C125.78 137.55 127.419 138.287 130.94 140.662C151.165 154.336 175.893 150.323 165.821 135.093C162.464 130.016 154.113 122.566 144.86 116.343L137.327 111.266L143.713 110.611C166.476 108.318 184 96.6089 184 83.6713C184 75.4011 175.157 73.1076 157.47 76.9561L155.176 77.4482L157.797 73.0265C171.799 49.2804 154.931 41.0102 132.414 60.6622C129.875 62.873 128.237 63.9367 128.564 63.036C137.49 38.8804 129.875 16.609 114.563 23.1597Z" fill="#FDC502"/>
</svg>
